<svg width="31" height="31" viewBox="0 0 31 31" fill="none" xmlns="http://www.w3.org/2000/svg">
<g clip-path="url(#clip0_40013830_103944)">
<path d="M25.3098 2.6956e-05H5.05655C2.26144 0.00907961 -0.00901874 2.2813 2.69354e-05 5.07856V25.3475C0.00907261 28.1447 2.27954 30.4169 5.07465 30.4079H25.3279C28.123 30.3988 30.3935 28.1266 30.3844 25.3294V5.06047C30.3754 2.2632 28.1049 -0.00902569 25.3098 2.6956e-05Z" fill="url(#paint0_linear_40013830_103944)"/>
<path d="M25.3098 2.6956e-05H5.05655C2.26144 0.00907961 -0.00901874 2.2813 2.69354e-05 5.07856V25.3475C0.00907261 28.1447 2.27954 30.4169 5.07465 30.4079H25.3279C28.123 30.3988 30.3935 28.1266 30.3844 25.3294V5.06047C30.3754 2.2632 28.1049 -0.00902569 25.3098 2.6956e-05Z" fill="url(#paint1_linear_40013830_103944)"/>
<path d="M24.0433 2.01877H6.32287C4.08859 2.02782 2.27041 3.8474 2.27945 6.0834V21.7898C2.2885 24.0258 4.10667 25.8453 6.34095 25.8363H24.0614C26.2957 25.8272 28.1139 24.0077 28.1049 21.7716V6.06531C28.0958 3.8293 26.2776 2.00972 24.0433 2.01877Z" fill="white" fill-opacity="0.08"/>
<path d="M17.5668 11.9495L17.3406 11.0714C17.2592 10.7546 17.0964 10.4558 16.8612 10.2205C16.626 9.98511 16.3365 9.82216 16.0109 9.74069L15.1335 9.51437C15.043 9.49627 14.9707 9.44195 14.9164 9.36953C14.8621 9.2971 14.835 9.20657 14.835 9.1251C14.835 9.04363 14.8621 8.94406 14.9164 8.88069C14.9707 8.80827 15.0521 8.763 15.1335 8.73584L16.0109 8.51857C16.3275 8.4371 16.626 8.27415 16.8612 8.03878C17.0964 7.80342 17.2592 7.51373 17.3406 7.18783L17.5668 6.30973C17.5848 6.2192 17.6391 6.14679 17.7115 6.09247C17.7839 6.03815 17.8743 6.01099 17.9557 6.01099C18.0371 6.01099 18.1366 6.03815 18.2 6.09247C18.2723 6.14679 18.3175 6.22825 18.3447 6.30973L18.5618 7.18783C18.6432 7.50468 18.806 7.80342 19.0412 8.03878C19.2764 8.27415 19.5659 8.4371 19.8915 8.51857L20.7689 8.73584C20.8594 8.75395 20.9317 8.80827 20.986 8.88069C21.0403 8.95311 21.0674 9.04363 21.0674 9.1251C21.0674 9.20657 21.0403 9.30616 20.986 9.36953C20.9317 9.44195 20.8503 9.48721 20.7689 9.51437L19.8915 9.74069C19.5659 9.82216 19.2764 9.98511 19.0412 10.2205C18.806 10.4558 18.6432 10.7455 18.5618 11.0714L18.3447 11.9495C18.3266 12.0401 18.2723 12.1125 18.2 12.1668C18.1276 12.2211 18.0371 12.2483 17.9557 12.2483C17.8743 12.2483 17.7748 12.2211 17.7115 12.1668C17.6391 12.1125 17.5939 12.031 17.5668 11.9495Z" fill="white"/>
<path d="M14.5093 7.53184L14.3736 7.0249C14.3284 6.83479 14.2289 6.66279 14.0842 6.527C13.9485 6.39121 13.7676 6.29163 13.5776 6.24637L13.0711 6.11057C13.0168 6.10152 12.9716 6.07436 12.9354 6.0291C12.8992 5.98384 12.8811 5.92952 12.8811 5.87521C12.8811 5.82089 12.8992 5.76658 12.9354 5.72131C12.9716 5.67605 13.0168 5.64889 13.0711 5.63984L13.5776 5.50404C13.7676 5.45878 13.9394 5.3592 14.0842 5.22341C14.2289 5.08762 14.3194 4.90657 14.3646 4.71647L14.5003 4.20952C14.5093 4.15521 14.5365 4.10993 14.5817 4.07372C14.6269 4.03751 14.6812 4.01941 14.7355 4.01941C14.7897 4.01941 14.844 4.03751 14.8892 4.07372C14.9345 4.10993 14.9616 4.15521 14.9707 4.20952L15.1063 4.71647C15.1516 4.90657 15.2511 5.07857 15.3867 5.22341C15.5224 5.3592 15.6943 5.45879 15.8933 5.5131L16.3999 5.64889C16.4541 5.66699 16.4903 5.69416 16.5265 5.73942C16.5536 5.78468 16.5717 5.82994 16.5717 5.88425C16.5717 5.93857 16.5536 5.98384 16.5265 6.0291C16.4994 6.07436 16.4541 6.10153 16.3999 6.11963L15.8933 6.25542C15.7034 6.30068 15.5315 6.40026 15.3958 6.53605C15.2601 6.67183 15.1606 6.84384 15.1154 7.03394L14.9797 7.54089C14.9706 7.59521 14.9435 7.64048 14.8983 7.67669C14.8531 7.7129 14.7988 7.731 14.7445 7.731C14.6902 7.731 14.636 7.7129 14.5907 7.67669C14.5455 7.64048 14.5184 7.59521 14.5093 7.54089V7.53184Z" fill="white"/>
<path d="M24.8033 1.00488H5.56316C4.35104 1.01394 3.19319 1.49373 2.3429 2.35373C1.49261 3.21373 1.01318 4.37247 1.01318 5.57647V22.2967C1.02223 23.5098 1.50165 24.6685 2.36099 25.5195C3.22033 26.3704 4.37818 26.8502 5.58125 26.8502H24.8214C26.0335 26.8411 27.1914 26.3614 28.0417 25.5014C28.892 24.6414 29.3714 23.4826 29.3714 22.2786V5.55836C29.3623 4.34531 28.8829 3.18657 28.0236 2.33562C27.1642 1.48467 26.0064 1.00488 24.8033 1.00488ZM28.105 21.7807C28.105 22.858 27.6798 23.89 26.92 24.6504C26.1602 25.4108 25.1289 25.8363 24.0525 25.8363H6.33204C5.25561 25.8454 4.2244 25.4199 3.46457 24.6595C2.70473 23.899 2.27959 22.867 2.27959 21.7898V6.08342C2.27054 5.00615 2.69569 3.97415 3.45553 3.21373C4.21536 2.45331 5.24657 2.02784 6.323 2.02784H24.0435C25.1199 2.01878 26.1511 2.44426 26.9109 3.20468C27.6708 3.96511 28.0959 4.99711 28.0959 6.07437V21.7807H28.105Z" fill="white" fill-opacity="0.32"/>
<mask id="mask0_40013830_103944" style="mask-type:luminance" maskUnits="userSpaceOnUse" x="4" y="10" width="22" height="16">
<path d="M25.4635 10.1299H4.90271V25.8453H25.4635V10.1299Z" fill="white"/>
</mask>
<g mask="url(#mask0_40013830_103944)">
<path d="M16.6531 12.031C16.6531 12.3569 16.5355 12.6737 16.3274 12.9181C16.1103 13.1626 15.8209 13.3255 15.4952 13.3798V15.0274H15.0158V13.3617C14.7625 13.3074 14.5364 13.1807 14.3555 13.0087C14.1746 12.8276 14.0389 12.6013 13.9846 12.3569C13.9213 12.1034 13.9394 11.8499 14.0208 11.6055C14.1022 11.3611 14.256 11.1438 14.4459 10.9899C14.6449 10.827 14.8892 10.7274 15.1425 10.6912C15.3957 10.664 15.6581 10.7002 15.8842 10.8089C16.1194 10.9175 16.3094 11.0895 16.445 11.3068C16.5807 11.524 16.6531 11.7775 16.6531 12.031Z" fill="white"/>
<path d="M15.3053 14.439C21.1126 14.439 23.8625 18.0329 25.0565 22.1519C25.2736 22.8942 25.3098 23.6818 25.1741 24.4422C25.0384 25.2026 24.7218 25.9268 24.2515 26.5424C23.7901 27.167 23.1841 27.6649 22.4876 28.0089C21.791 28.3529 21.0312 28.534 20.2533 28.534H10.3573C9.57937 28.534 8.81954 28.3529 8.13207 28.0089C7.4446 27.6649 6.83854 27.158 6.37721 26.5424C5.91588 25.9268 5.59928 25.2026 5.45455 24.4422C5.31886 23.6818 5.35505 22.8942 5.57214 22.1519C6.76617 18.0238 9.50701 14.43 15.3234 14.4209" fill="white"/>
<path d="M23.0032 20.4771V21.3552C23.0032 22.1608 22.6865 22.9303 22.1167 23.5006C21.5468 24.071 20.7779 24.3878 19.9728 24.3878H10.6468C9.8417 24.3878 9.0728 24.071 8.50293 23.5006C7.93305 22.9303 7.61646 22.1608 7.61646 21.3552V20.4771C7.61646 19.6714 7.93305 18.9019 8.50293 18.3316C9.0728 17.7613 9.8417 17.4444 10.6468 17.4444C11.0176 17.4444 11.3795 17.544 11.687 17.7341C12.0036 17.9242 12.2659 18.1958 12.4378 18.5126L12.872 19.3274C12.9986 19.4632 13.1524 19.5627 13.3243 19.6261C13.4961 19.6895 13.6771 19.7166 13.858 19.6895H16.7616C16.9425 19.7076 17.1235 19.6895 17.2953 19.6171C17.4672 19.5537 17.621 19.4541 17.7386 19.3183L18.1728 18.5036C18.3446 18.1777 18.607 17.9061 18.9145 17.725C19.2311 17.5349 19.5929 17.4354 19.9548 17.4354C20.3528 17.4354 20.7508 17.5078 21.1217 17.6617C21.4925 17.8156 21.8272 18.0328 22.1167 18.3225C22.3971 18.6032 22.6232 18.9381 22.777 19.3093C22.9308 19.6804 23.0122 20.0787 23.0122 20.4771H23.0032Z" fill="url(#paint2_linear_40013830_103944)"/>
<path d="M23.0032 20.4771V21.3552C23.0032 22.1608 22.6865 22.9303 22.1167 23.5006C21.5468 24.071 20.7779 24.3878 19.9728 24.3878H10.6468C9.8417 24.3878 9.0728 24.071 8.50293 23.5006C7.93305 22.9303 7.61646 22.1608 7.61646 21.3552V20.4771C7.61646 19.6714 7.93305 18.9019 8.50293 18.3316C9.0728 17.7613 9.8417 17.4444 10.6468 17.4444C11.0176 17.4444 11.3795 17.544 11.687 17.7341C12.0036 17.9242 12.2659 18.1958 12.4378 18.5126L12.872 19.3274C12.9986 19.4632 13.1524 19.5627 13.3243 19.6261C13.4961 19.6895 13.6771 19.7166 13.858 19.6895H16.7616C16.9425 19.7076 17.1235 19.6895 17.2953 19.6171C17.4672 19.5537 17.621 19.4541 17.7386 19.3183L18.1728 18.5036C18.3446 18.1777 18.607 17.9061 18.9145 17.725C19.2311 17.5349 19.5929 17.4354 19.9548 17.4354C20.3528 17.4354 20.7508 17.5078 21.1217 17.6617C21.4925 17.8156 21.8272 18.0328 22.1167 18.3225C22.3971 18.6032 22.6232 18.9381 22.777 19.3093C22.9308 19.6804 23.0122 20.0787 23.0122 20.4771H23.0032Z" fill="url(#paint3_linear_40013830_103944)"/>
<path d="M10.511 21.319C11.506 21.319 12.3111 20.5133 12.3111 19.5175C12.3111 18.5217 11.506 17.716 10.511 17.716C9.51599 17.716 8.71094 18.5217 8.71094 19.5175C8.71094 20.5133 9.51599 21.319 10.511 21.319Z" fill="white"/>
<path d="M20.2351 21.319C21.2302 21.319 22.0352 20.5133 22.0352 19.5175C22.0352 18.5217 21.2302 17.716 20.2351 17.716C19.2401 17.716 18.4351 18.5217 18.4351 19.5175C18.4351 20.5133 19.2401 21.319 20.2351 21.319Z" fill="white"/>
</g>
</g>
<defs>
<linearGradient id="paint0_linear_40013830_103944" x1="15.227" y1="0.00684665" x2="15.2429" y2="30.4057" gradientUnits="userSpaceOnUse">
<stop stop-color="#0443A9"/>
<stop offset="1" stop-color="#480293"/>
</linearGradient>
<linearGradient id="paint1_linear_40013830_103944" x1="15.227" y1="0.00684665" x2="15.2429" y2="30.4057" gradientUnits="userSpaceOnUse">
<stop stop-color="#0443A9"/>
<stop offset="1" stop-color="#480293"/>
</linearGradient>
<linearGradient id="paint2_linear_40013830_103944" x1="15.3446" y1="17.4512" x2="15.3483" y2="24.4036" gradientUnits="userSpaceOnUse">
<stop stop-color="#0443A9"/>
<stop offset="1" stop-color="#640DA7"/>
</linearGradient>
<linearGradient id="paint3_linear_40013830_103944" x1="14.9388" y1="37.1499" x2="15.3203" y2="21.7422" gradientUnits="userSpaceOnUse">
<stop stop-color="white" stop-opacity="0.9"/>
<stop offset="0.13" stop-color="white" stop-opacity="0.78"/>
<stop offset="0.29" stop-color="white" stop-opacity="0.66"/>
<stop offset="0.45" stop-color="white" stop-opacity="0.57"/>
<stop offset="0.6" stop-color="white" stop-opacity="0.52"/>
<stop offset="0.74" stop-color="white" stop-opacity="0.5"/>
<stop offset="0.81" stop-color="#FCFCFC" stop-opacity="0.46"/>
<stop offset="0.94" stop-color="#F3F3F3" stop-opacity="0.35"/>
<stop offset="1" stop-color="#EFEFEF" stop-opacity="0.3"/>
</linearGradient>
<clipPath id="clip0_40013830_103944">
<rect width="30.3845" height="30.4079" fill="white"/>
</clipPath>
</defs>
</svg>
