<svg width="30" height="30" viewBox="0 0 30 30" fill="none" xmlns="http://www.w3.org/2000/svg">
<g clip-path="url(#clip0_40013830_103930)">
<path d="M25 0H5C2.23858 0 0 2.23858 0 5V25C0 27.7614 2.23858 30 5 30H25C27.7614 30 30 27.7614 30 25V5C30 2.23858 27.7614 0 25 0Z" fill="#F15F66"/>
<path d="M24.5002 0.999939H5.50024C3.01496 0.999939 1.00024 3.01466 1.00024 5.49994V22C1.00024 24.4853 3.01496 26.5 5.50024 26.5H24.5002C26.9855 26.5 29.0002 24.4853 29.0002 22V5.49994C29.0002 3.01466 26.9855 0.999939 24.5002 0.999939Z" fill="#FEF7DD"/>
<path d="M27.9004 6.00006V21.5C27.9004 22.5609 27.4789 23.5784 26.7288 24.3285C25.9786 25.0787 24.9613 25.5001 23.9004 25.5001H6.10035C5.45333 25.5001 4.81598 25.3431 4.24295 25.0427C3.66993 24.7422 3.17833 24.3072 2.81034 23.7751C2.34801 23.1065 2.10036 22.313 2.10034 21.5V6.00006C2.10034 4.93919 2.52177 3.92178 3.27192 3.17164C4.02207 2.42149 5.03948 2.00006 6.10035 2.00006H23.9004C24.4256 2.00006 24.9458 2.10352 25.4311 2.30454C25.9164 2.50556 26.3573 2.8002 26.7288 3.17164C27.1002 3.54307 27.3949 3.98402 27.5959 4.46932C27.7969 4.95463 27.9004 5.47477 27.9004 6.00006Z" fill="url(#paint0_linear_40013830_103930)"/>
<path d="M24.1101 8.43503L20.3351 16.695L15.1201 11.47L22.8001 7.125L24.1101 8.43503Z" fill="#FEE576"/>
<path d="M22.7999 7.12493L15.1199 11.4699L12.8999 9.2499L21.1599 5.48492L22.7999 7.12493Z" fill="#FFF0B3"/>
<path d="M20.3351 16.695L11.5251 25.5H6.10006C5.45305 25.5 4.81569 25.3431 4.24267 25.0427C3.66964 24.7422 3.17805 24.3072 2.81006 23.775L15.115 11.475L20.3351 16.695Z" fill="#F15F66"/>
<path d="M15.1153 11.4749L2.81034 23.7749C2.34801 23.1063 2.10036 22.3128 2.10034 21.4999V20.0599L12.9004 9.24994L15.1153 11.4749Z" fill="#F59597"/>
<path d="M25.4998 5.09496C25.4998 5.15997 25.4998 5.21496 25.4998 5.28496C25.4763 5.41726 25.4377 5.54644 25.3848 5.66996L24.1248 8.43495L22.8148 7.12496L21.1748 5.48496L23.9348 4.21996C24.0912 4.12847 24.2687 4.0794 24.4498 4.07763C24.631 4.07585 24.8095 4.12143 24.9676 4.20983C25.1257 4.29823 25.258 4.42641 25.3513 4.58166C25.4447 4.73691 25.4959 4.91385 25.4998 5.09496Z" fill="#212121"/>
</g>
<defs>
<linearGradient id="paint0_linear_40013830_103930" x1="15.0004" y1="2.00006" x2="15.0004" y2="25.5001" gradientUnits="userSpaceOnUse">
<stop stop-color="#E97D82"/>
<stop offset="1" stop-color="#982F33"/>
</linearGradient>
<clipPath id="clip0_40013830_103930">
<rect width="30" height="30" fill="white"/>
</clipPath>
</defs>
</svg>
