<svg width="24" height="24" viewBox="0 0 24 24" fill="none" xmlns="http://www.w3.org/2000/svg">
<g clip-path="url(#clip0_40013830_103964)">
<path d="M13.722 1.10942L15.3371 4.40203C15.6157 4.98188 16.0881 5.94696 16.7139 6.024L22.3666 6.83499C23.9332 7.07017 24.555 10.2898 23.4164 11.4252L19.8068 15.0422C19.6037 15.2364 19.4567 15.4821 19.3813 15.7534C19.306 16.0246 19.3051 16.3113 19.3788 16.5831L20.2953 21.4814C20.5618 23.1034 18.4178 24.551 17.0127 23.7927L12.9024 21.5909C12.6279 21.4432 12.3214 21.366 12.0101 21.366C11.6987 21.366 11.3922 21.4432 11.1177 21.5909L7.11644 23.7319C5.71538 24.4902 3.48256 23.2778 3.76923 21.6679L4.64944 16.3965C4.75442 15.7599 4.64944 15.549 4.18511 15.0949L0.575453 11.4536C-0.563163 10.3141 0.0868979 7.09045 1.65754 6.85932L6.90648 6.09699C7.53232 6.00373 8.06125 5.84964 8.33985 5.286L10.2577 1.08914C10.4153 0.761097 10.6623 0.48465 10.97 0.291878C11.2777 0.0991055 11.6336 -0.00208981 11.9963 3.2716e-05C12.3589 0.00215524 12.7136 0.107509 13.019 0.30387C13.3245 0.50023 13.5682 0.779549 13.722 1.10942Z" fill="#F68520"/>
<path d="M13.6643 1.01202L15.8203 5.29202C15.9541 5.55539 16.1494 5.78266 16.3896 5.95463C16.6298 6.1266 16.9079 6.23821 17.2003 6.28002L22.0003 6.96802C22.3389 7.00982 22.6586 7.14674 22.9225 7.3629C23.1863 7.57906 23.3835 7.86559 23.4911 8.18927C23.5987 8.51295 23.6124 8.8605 23.5304 9.19161C23.4485 9.52273 23.2744 9.82384 23.0283 10.06L19.5403 13.392C19.327 13.5946 19.1667 13.8464 19.0732 14.1253C18.9798 14.4042 18.9561 14.7018 19.0043 14.992L19.8283 19.696C19.8763 20.0293 19.8319 20.3693 19.7 20.6791C19.5681 20.9889 19.3537 21.2566 19.0802 21.4529C18.8067 21.6493 18.4846 21.7668 18.1488 21.7928C17.8131 21.8187 17.4768 21.752 17.1763 21.6L12.8643 19.388C12.5981 19.2518 12.3034 19.1808 12.0043 19.1808C11.7053 19.1808 11.4105 19.2518 11.1443 19.388L6.83233 21.6C6.53058 21.761 6.18994 21.8347 5.84863 21.8129C5.50731 21.791 5.17885 21.6745 4.90009 21.4763C4.62134 21.2781 4.40333 21.0062 4.27054 20.691C4.13775 20.3759 4.09543 20.0299 4.14833 19.692L4.97233 14.988C5.02138 14.6982 4.99852 14.4007 4.90577 14.1217C4.81301 13.8427 4.65319 13.5908 4.44033 13.388L0.952332 10.06C0.706325 9.8241 0.532186 9.52331 0.450087 9.1925C0.367987 8.86169 0.381286 8.51439 0.488444 8.19083C0.595601 7.86726 0.792231 7.58067 1.05556 7.36426C1.31889 7.14785 1.63814 7.01046 1.97633 6.96802L6.80033 6.28002C7.09491 6.24003 7.37541 6.12927 7.61784 5.9572C7.86026 5.78514 8.05738 5.5569 8.19233 5.29202L10.3483 1.01202C10.5059 0.708354 10.7439 0.453805 11.0363 0.27614C11.3287 0.0984744 11.6642 0.0045166 12.0063 0.0045166C12.3485 0.0045166 12.684 0.0984744 12.9764 0.27614C13.2688 0.453805 13.5067 0.708354 13.6643 1.01202Z" fill="#FFD731"/>
<path d="M22.9718 7.37999L5.06384 21.6C4.732 21.4227 4.46471 21.145 4.30019 20.8066C4.13567 20.4682 4.08235 20.0865 4.14784 19.716L4.65584 16.8L17.7718 6.35999L22.0318 6.96799C22.378 7.01317 22.704 7.15609 22.9718 7.37999Z" fill="#FEE569"/>
</g>
<defs>
<clipPath id="clip0_40013830_103964">
<rect width="24" height="24" fill="white"/>
</clipPath>
</defs>
</svg>
