<svg width="37" height="30" viewBox="0 0 37 30" fill="none" xmlns="http://www.w3.org/2000/svg">
<g clip-path="url(#clip0_40013830_103914)">
<path d="M28.9711 0.00012207H7.34716C4.36151 0.00012207 1.94116 2.2387 1.94116 5.00012V25.0001C1.94116 27.7615 4.36151 30.0001 7.34716 30.0001H28.9711C31.9568 30.0001 34.3771 27.7615 34.3771 25.0001V5.00012C34.3771 2.2387 31.9568 0.00012207 28.9711 0.00012207Z" fill="#AD6928"/>
<path d="M3.02197 10.9999H33.2955V22.9999C33.2955 24.1934 32.7829 25.338 31.8705 26.1819C30.9581 27.0258 29.7205 27.4999 28.4301 27.4999H7.88737C6.59698 27.4999 5.35945 27.0258 4.44701 26.1819C3.53457 25.338 3.02197 24.1934 3.02197 22.9999V10.9999Z" fill="#E59724"/>
<path d="M33.7334 0H2.58406C1.15692 0 0 1.07004 0 2.39V5.32001C0 6.63997 1.15692 7.71001 2.58406 7.71001H33.7334C35.1605 7.71001 36.3175 6.63997 36.3175 5.32001V2.39C36.3175 1.07004 35.1605 0 33.7334 0Z" fill="#E59724"/>
<path d="M21.2135 12.845H15.1048C14.3703 12.845 13.7749 13.3957 13.7749 14.075V14.77C13.7749 15.4493 14.3703 16 15.1048 16H21.2135C21.948 16 22.5434 15.4493 22.5434 14.77V14.075C22.5434 13.3957 21.948 12.845 21.2135 12.845Z" fill="#AD6928"/>
</g>
<defs>
<clipPath id="clip0_40013830_103914">
<rect width="36.3175" height="30" fill="white"/>
</clipPath>
</defs>
</svg>
