<svg width="22" height="30" viewBox="0 0 22 30" fill="none" xmlns="http://www.w3.org/2000/svg">
<g clip-path="url(#clip0_40013830_103922)">
<path d="M20.2283 13.5336L11.9582 29.5338C11.8509 29.7193 11.6825 29.8623 11.4814 29.9387C11.2803 30.0151 11.0589 30.0202 10.8544 29.9533C10.65 29.8863 10.475 29.7514 10.359 29.5711C10.243 29.3909 10.1931 29.1764 10.2177 28.9638V19.5287H1.0622C0.870954 19.5306 0.682789 19.4807 0.517973 19.3843C0.353156 19.2878 0.217931 19.1485 0.126855 18.9814C0.0357785 18.8142 -0.0076917 18.6255 0.00111566 18.4356C0.00992302 18.2457 0.0706773 18.0618 0.17684 17.9037L10.5245 0.483441C10.6286 0.294475 10.7955 0.147282 10.9966 0.066997C11.1977 -0.0132877 11.4206 -0.0216818 11.6273 0.0432464C11.8339 0.108174 12.0115 0.242396 12.1297 0.422993C12.2478 0.60359 12.2993 0.819358 12.2751 1.03345L9.86554 12.1536H19.4235C19.585 12.156 19.7432 12.1999 19.8827 12.2812C20.0221 12.3624 20.138 12.4781 20.219 12.6171C20.3001 12.756 20.3435 12.9135 20.3452 13.0741C20.3468 13.2347 20.3065 13.393 20.2283 13.5336Z" fill="#F68C24"/>
<path d="M21.5558 12.6535L12.0532 29.5138C11.9398 29.6851 11.7726 29.8143 11.5775 29.8814C11.3825 29.9485 11.1707 29.9495 10.975 29.8845C10.7793 29.8195 10.6107 29.692 10.4955 29.5218C10.3802 29.3517 10.3248 29.1485 10.3379 28.9438L11.4999 18.3786H2.32933C2.16384 18.3812 2.00062 18.3401 1.85632 18.2596C1.71203 18.179 1.59181 18.0618 1.50794 17.92C1.42407 17.7782 1.37955 17.6168 1.37891 17.4523C1.37828 17.2878 1.42156 17.1261 1.50433 16.9836L10.5843 0.483388C10.6903 0.296622 10.8577 0.151733 11.0583 0.0730017C11.259 -0.00573001 11.4808 -0.0135196 11.6865 0.0509372C11.8922 0.115394 12.0695 0.248179 12.1884 0.427045C12.3074 0.60591 12.3609 0.819984 12.34 1.03339L11.193 11.2585H20.7509C20.9147 11.2595 21.0754 11.3031 21.2169 11.3851C21.3584 11.4672 21.4757 11.5846 21.5572 11.7259C21.6387 11.8671 21.6814 12.0271 21.6812 12.1899C21.6809 12.3527 21.6377 12.5126 21.5558 12.6535Z" fill="#FFD72D"/>
<path d="M19.1971 14.9037L20.4899 12.7887C20.5311 12.7139 20.5525 12.6299 20.5518 12.5447C20.5512 12.4594 20.5286 12.3757 20.4863 12.3016C20.4439 12.2274 20.3832 12.1653 20.3099 12.121C20.2366 12.0767 20.1531 12.0519 20.0674 12.0487L16.8126 12.0787C16.686 12.0797 16.5625 12.1178 16.4576 12.1882C16.3526 12.2586 16.2709 12.3581 16.2226 12.4745C16.1742 12.5908 16.1615 12.7187 16.1859 12.8422C16.2104 12.9657 16.2709 13.0792 16.3599 13.1687L18.186 15.0187C18.2546 15.0886 18.3384 15.1419 18.4309 15.1746C18.5234 15.2073 18.6223 15.2186 18.7199 15.2075C18.8174 15.1964 18.9112 15.1632 18.9939 15.1106C19.0766 15.058 19.1461 14.9872 19.1971 14.9037Z" fill="#FEE266"/>
<path d="M4.1661 14.6285L2.86824 16.7435C2.82683 16.8186 2.80555 16.9031 2.80642 16.9887C2.8073 17.0744 2.8303 17.1584 2.87323 17.2327C2.91615 17.307 2.97756 17.3691 3.05156 17.413C3.12556 17.4569 3.20967 17.4812 3.29583 17.4835L6.55558 17.4535C6.68219 17.4525 6.80569 17.4144 6.91064 17.344C7.0156 17.2736 7.09735 17.1741 7.14566 17.0577C7.19398 16.9414 7.20672 16.8135 7.18229 16.69C7.15787 16.5665 7.09736 16.453 7.00833 16.3635L5.18226 14.5134C5.11365 14.4426 5.02955 14.3885 4.93649 14.3552C4.84342 14.3219 4.74388 14.3104 4.64561 14.3215C4.54733 14.3326 4.45295 14.3661 4.3698 14.4193C4.28664 14.4726 4.21694 14.5441 4.1661 14.6285Z" fill="#FCB535"/>
</g>
<defs>
<clipPath id="clip0_40013830_103922">
<rect width="21.6812" height="30" fill="white"/>
</clipPath>
</defs>
</svg>
