<svg width="39" height="44" viewBox="0 0 39 44" fill="none" xmlns="http://www.w3.org/2000/svg">
<path fill-rule="evenodd" clip-rule="evenodd" d="M33.721 22.421C35.121 22.421 36.4637 22.979 37.4538 23.9722C38.4437 24.9653 39 26.3123 39 27.7168C39 31.0579 39 35.3574 39 38.6984C39 40.1029 38.4437 41.4499 37.4538 42.4431C36.4637 43.4362 35.121 43.9941 33.721 43.9941C26.2662 43.9941 12.7338 43.9941 5.279 43.9941C3.879 43.9941 2.53634 43.4362 1.54622 42.4431C0.556274 41.4499 0 40.1029 0 38.6984C0 35.3574 0 31.0579 0 27.7168C0 26.3123 0.556274 24.9653 1.54622 23.9722C2.53634 22.979 3.879 22.421 5.279 22.421C12.7338 22.421 26.2662 22.421 33.721 22.421Z" fill="#1A378E"/>
<path fill-rule="evenodd" clip-rule="evenodd" d="M33.721 17.8284C35.121 17.8284 36.4637 18.3864 37.4538 19.3796C38.4437 20.3727 39 21.7197 39 23.1242C39 26.4653 39 30.7648 39 34.1058C39 35.5104 38.4437 36.8573 37.4538 37.8505C36.4637 38.8436 35.121 39.4015 33.721 39.4015C26.2662 39.4015 12.7338 39.4015 5.279 39.4015C3.879 39.4015 2.53634 38.8436 1.54622 37.8505C0.556274 36.8573 0 35.5104 0 34.1058C0 30.7648 0 26.4653 0 23.1242C0 21.7197 0.556274 20.3727 1.54622 19.3796C2.53634 18.3864 3.879 17.8284 5.279 17.8284C12.7338 17.8284 26.2662 17.8284 33.721 17.8284Z" fill="#3458FF"/>
<path fill-rule="evenodd" clip-rule="evenodd" d="M32.8638 2.34439C34.9937 2.34439 36.7201 4.07647 36.7201 6.21294C36.7201 13.3297 36.7201 28.4194 36.7201 35.536C36.7201 37.6726 34.9937 39.4046 32.8638 39.4046C26.9025 39.4046 15.5163 39.4046 9.55502 39.4046C7.42513 39.4046 5.69873 37.6726 5.69873 35.536C5.69873 28.4194 5.69873 13.3297 5.69873 6.21294C5.69873 4.07647 7.42513 2.34439 9.55502 2.34439C15.5163 2.34439 26.9025 2.34439 32.8638 2.34439Z" fill="#DAE1FF"/>
<path fill-rule="evenodd" clip-rule="evenodd" d="M27.7086 0C29.1088 0 30.4515 0.558026 31.4415 1.55112C32.4314 2.54421 32.9877 3.89129 32.9877 5.29576C32.9877 12.8324 32.9877 26.572 32.9877 34.1086C32.9877 35.5132 32.4314 36.8602 31.4415 37.8534C30.4515 38.8465 29.1088 39.4044 27.7086 39.4044C21.553 39.4044 11.4387 39.4044 5.28311 39.4044C3.883 39.4044 2.54026 38.8465 1.55029 37.8534C0.560316 36.8602 0.00402832 35.5132 0.00402832 34.1086V5.29576C0.00402832 3.89129 0.560316 2.54421 1.55029 1.55112C2.54026 0.558026 3.883 0 5.28311 0C11.4387 0 21.553 0 27.7086 0Z" fill="#3D61FF"/>
<path fill-rule="evenodd" clip-rule="evenodd" d="M24.3775 18.1734C24.9715 18.5485 25.336 19.1997 25.3459 19.9037C25.3557 20.6079 25.0097 21.2691 24.4264 21.6608C21.5426 23.5973 16.9334 26.6926 13.8425 28.7682C13.2068 29.1951 12.3882 29.236 11.7133 28.8745C11.0385 28.513 10.6171 27.8079 10.6171 27.0404V13.2509C10.6171 12.494 11.0271 11.7968 11.6877 11.4308C12.3483 11.065 13.1549 11.0881 13.7936 11.4913C16.8672 13.4318 21.4753 16.3412 24.3775 18.1734Z" fill="white"/>
</svg>
